HIERARCHY
ROOT Hips
{
	OFFSET -0.001795 -0.223333 0.028219
	CHANNELS 6 Xposition Yposition Zposition Zrotation Yrotation Xrotation 
	JOINT LeftUpLeg
	{
		OFFSET 0.069520 -0.091406 -0.006815
		CHANNELS 3 Zrotation Yrotation Xrotation
		JOINT LeftLeg
		{
			OFFSET 0.034277 -0.375199 -0.004496
			CHANNELS 3 Zrotation Yrotation Xrotation
			JOINT LeftFoot
			{
				OFFSET -0.013596 -0.397961 -0.043693
				CHANNELS 3 Zrotation Yrotation Xrotation
				JOINT LeftToe
				{
					OFFSET 0.026358 -0.055791 0.119288
					CHANNELS 3 Zrotation Yrotation Xrotation
					End Site
					{
						OFFSET 0.000000 0.000000 0.000000
					}
				}
			}
		}
	}
	JOINT RightUpLeg
	{
		OFFSET -0.067670 -0.090522 -0.004320
		CHANNELS 3 Zrotation Yrotation Xrotation
		JOINT RightLeg
		{
			OFFSET -0.038290 -0.382569 -0.008850
			CHANNELS 3 Zrotation Yrotation Xrotation
			JOINT RightFoot
			{
				OFFSET 0.015774 -0.398415 -0.042312
				CHANNELS 3 Zrotation Yrotation Xrotation
				JOINT RightToe
				{
					OFFSET -0.025372 -0.048144 0.123348
					CHANNELS 3 Zrotation Yrotation Xrotation
					End Site
					{
						OFFSET 0.000000 0.000000 0.000000
					}
				}
			}
		}
	}
	JOINT Spine
	{
		OFFSET -0.002533 0.108963 -0.026696
		CHANNELS 3 Zrotation Yrotation Xrotation
		JOINT Spine1
		{
			OFFSET 0.005487 0.135180 0.001092
			CHANNELS 3 Zrotation Yrotation Xrotation
			JOINT Spine2
			{
				OFFSET 0.001457 0.052922 0.025425
				CHANNELS 3 Zrotation Yrotation Xrotation
				JOINT Neck
				{
					OFFSET -0.002778 0.213870 -0.042857
					CHANNELS 3 Zrotation Yrotation Xrotation
					JOINT Head
					{
						OFFSET 0.005152 0.064970 0.051349
						CHANNELS 3 Zrotation Yrotation Xrotation
						End Site
						{
							OFFSET 0.000000 0.000000 0.000000
						}
					}
				}
				JOINT LeftShoulder
				{
					OFFSET 0.078845 0.121749 -0.034090
					CHANNELS 3 Zrotation Yrotation Xrotation
					JOINT LeftArm
					{
						OFFSET 0.090977 0.030469 -0.008868
						CHANNELS 3 Zrotation Yrotation Xrotation
						JOINT LeftForeArm
						{
							OFFSET 0.259612 -0.012772 -0.027456
							CHANNELS 3 Zrotation Yrotation Xrotation
							JOINT LeftHand
							{
								OFFSET 0.249234 0.008986 -0.001171
								CHANNELS 3 Zrotation Yrotation Xrotation
								End Site
								{
									OFFSET 0.000000 0.000000 0.000000
								}
							}
						}
					}
				}
				JOINT RightShoulder
				{
					OFFSET -0.081759 0.118833 -0.038615
					CHANNELS 3 Zrotation Yrotation Xrotation
					JOINT RightArm
					{
						OFFSET -0.096012 0.032551 -0.009143
						CHANNELS 3 Zrotation Yrotation Xrotation
						JOINT RightForeArm
						{
							OFFSET -0.253742 -0.013329 -0.021401
							CHANNELS 3 Zrotation Yrotation Xrotation
							JOINT RightHand
							{
								OFFSET -0.255298 0.007772 -0.005559
								CHANNELS 3 Zrotation Yrotation Xrotation
								End Site
								{
									OFFSET 0.000000 0.000000 0.000000
								}
							}
						}
					}
				}
			}
		}
	}
}
MOTION
Frames: 17
Frame Time: 0.050000
0.223343 1.021252 1.615426 -1.143485 3.212647 -4.461934 0.888666 -0.196303 -2.314916 4.266606 -4.283956 40.377690 1.063186 3.547753 3.035753 0.000000 0.000000 0.000000 6.880149 2.698817 -17.401360 -1.424097 1.127908 21.444307 1.142678 -1.933505 10.872590 0.000000 0.000000 0.000000 -4.578238 -0.056899 4.868705 5.081224 -2.022509 -5.264550 0.625644 -14.269940 8.321238 -8.747231 4.939894 -20.140673 0.000000 0.000000 0.000000 -8.111057 -12.432287 6.247019 -23.623898 -38.695305 3.496493 57.718645 -48.822768 -22.030189 0.000000 0.000000 0.000000 5.297987 11.761946 3.010103 44.310333 3.817740 -3.196953 -13.669000 72.675446 -11.913583 0.000000 0.000000 0.000000 
0.220603 0.931855 1.715184 -1.641455 2.076351 -8.026777 2.858876 -0.739870 -11.070401 2.604346 -4.958170 55.969964 2.825351 4.624401 -3.461450 0.000000 0.000000 0.000000 9.389487 2.651186 -14.524154 -0.964955 1.569405 35.466405 -1.011150 -0.627861 -4.173763 0.000000 0.000000 0.000000 -3.770660 -0.163877 8.560811 4.627915 -2.058633 -2.864791 1.228558 -10.653200 7.585003 -7.165517 4.262211 -22.610488 0.000000 0.000000 0.000000 -11.346513 -9.721350 5.042756 -31.870704 -34.222021 4.109746 61.798160 -59.785517 -31.235266 0.000000 0.000000 0.000000 9.205686 7.708363 1.235458 44.934245 0.729385 -4.184238 1.870173 70.602178 0.601008 0.000000 0.000000 0.000000 
0.220225 0.873994 1.802471 -2.324913 1.412267 -10.897385 2.471823 -1.338839 -18.594139 3.429724 -6.702985 66.210123 2.691079 4.348333 -3.466244 0.000000 0.000000 0.000000 10.977489 2.815490 -13.887416 -0.391490 1.855843 49.860531 -3.693045 -4.530038 -12.995390 0.000000 0.000000 0.000000 -2.536384 -0.390911 14.816036 3.113781 -1.359039 -3.083588 2.155085 -9.218027 8.734677 -4.698011 3.011318 -25.379159 0.000000 0.000000 0.000000 -17.097721 -6.841137 4.033146 -35.403554 -23.285686 1.149391 57.997536 -71.154872 -36.194799 0.000000 0.000000 0.000000 16.220158 8.389322 0.797544 44.554756 -1.183078 -4.629763 3.377919 60.063196 1.989695 0.000000 0.000000 0.000000 
0.222620 0.873593 1.887248 -2.194093 -0.185644 -11.283657 2.994998 -1.742794 -26.245652 2.094295 -4.607681 63.503554 1.970323 4.006944 -0.311255 0.000000 0.000000 0.000000 12.361922 1.692268 -7.592242 -2.646640 3.622619 49.579599 -4.000301 -5.023066 -13.692401 0.000000 0.000000 0.000000 -2.406094 -0.411417 16.749760 0.527763 -0.177157 -2.666441 4.462539 -6.752866 9.536728 -3.146269 2.343845 -25.116670 0.000000 0.000000 0.000000 -21.050707 -3.205102 2.015544 -40.907026 -11.632829 -2.365256 5.059915 -76.081967 2.492689 0.000000 0.000000 0.000000 16.886891 6.625321 0.154073 48.227627 -5.091488 -6.819907 11.891038 49.676486 5.852233 0.000000 0.000000 0.000000 
0.227366 0.905973 1.976474 -1.934617 -1.084853 -8.214802 2.515654 -1.960878 -28.401531 2.826893 -3.133787 44.219191 -0.323001 0.920676 3.565425 0.000000 0.000000 0.000000 10.866044 0.436544 -2.288612 -2.435734 3.334534 43.870655 -3.390892 -4.218016 -10.700342 0.000000 0.000000 0.000000 -3.013738 -0.264789 15.264641 0.483995 -0.125752 -3.997645 4.887431 -4.262310 10.902422 0.639078 0.614396 -26.151879 0.000000 0.000000 0.000000 -21.398450 2.669587 -1.803944 -44.207050 2.081227 -7.024201 -39.267956 -66.774827 31.877971 0.000000 0.000000 0.000000 16.557203 1.710901 -1.735747 49.140305 -7.809653 -8.273931 19.435622 39.020517 7.369990 0.000000 0.000000 0.000000 
0.233590 0.941861 2.069009 -1.478970 -4.604723 -5.734787 2.967285 -1.510120 -26.995599 1.724745 -1.040682 20.481005 -3.986307 -1.023130 15.379314 0.000000 0.000000 0.000000 7.817043 -0.241983 0.923027 -2.895497 4.040784 41.129674 -0.250704 -0.694826 0.106946 0.000000 0.000000 0.000000 -4.098878 -0.039536 11.814672 0.111319 -0.031430 -2.161237 5.551673 -2.895228 12.100407 -0.879335 1.259453 -24.631753 0.000000 0.000000 0.000000 -18.760976 8.422410 -4.702498 -46.612853 13.995316 -11.391324 -48.903264 -53.301972 30.404556 0.000000 0.000000 0.000000 14.842991 0.294731 -2.256428 50.612992 -12.289166 -10.496191 23.749188 31.645727 6.954898 0.000000 0.000000 0.000000 
0.239521 0.949010 2.160877 -2.018230 -4.928533 -4.882779 1.823682 -1.652023 -24.815010 3.193956 -1.089651 12.781361 -7.222194 -4.232411 19.612564 0.000000 0.000000 0.000000 6.846429 0.123333 -1.409006 -1.067302 4.168260 50.222957 -0.055385 -1.892756 3.322208 0.000000 0.000000 0.000000 -4.263419 -0.010190 11.727056 -0.877622 0.426061 -1.839849 7.443952 -3.856790 11.745180 -1.649213 1.440136 -23.516719 0.000000 0.000000 0.000000 -17.852035 10.616237 -5.547397 -46.342532 23.639819 -14.446703 -49.091040 -41.302953 23.368219 0.000000 0.000000 0.000000 14.013483 -1.877598 -3.393523 48.996068 -17.848449 -12.279674 24.584252 27.697104 6.025692 0.000000 0.000000 0.000000 
0.244199 0.925238 2.246677 -2.449786 -4.868969 -6.972663 1.196111 -1.741375 -23.839929 3.045145 -1.606415 24.281523 -5.111354 -4.557951 11.371155 0.000000 0.000000 0.000000 4.671456 0.821610 -6.125737 2.679106 2.760575 61.956648 -0.093336 -1.542449 2.505026 0.000000 0.000000 0.000000 -5.010076 0.071655 14.898448 0.701100 -0.299154 -2.746903 6.269694 -4.079517 12.942799 -1.543231 1.405583 -24.086616 0.000000 0.000000 0.000000 -16.596956 9.142605 -4.592064 -47.481230 27.627386 -16.333423 -43.755829 -35.658216 17.843001 0.000000 0.000000 0.000000 16.600873 -2.340246 -4.108183 46.618754 -20.071378 -12.458193 19.731428 25.147676 4.489689 0.000000 0.000000 0.000000 
0.247495 0.896615 2.317033 -2.551307 -5.214489 -8.061754 0.825478 -1.923776 -25.489691 3.166603 -2.189346 37.631406 -2.860718 -4.154152 3.574548 0.000000 0.000000 0.000000 4.021478 1.651031 -12.074800 3.775066 2.303444 65.333903 -2.531433 -5.133313 -2.983539 0.000000 0.000000 0.000000 -4.899069 0.108873 18.126814 0.792421 -0.350073 -2.646665 5.932000 -5.106031 12.845480 -1.549206 1.338269 -26.518992 0.000000 0.000000 0.000000 -19.493207 6.984444 -3.371809 -47.286323 23.994188 -15.236987 -31.216612 -30.684601 11.147005 0.000000 0.000000 0.000000 19.364206 -0.693380 -4.158189 45.261514 -20.612247 -12.077128 15.367046 21.842208 3.057586 0.000000 0.000000 0.000000 
0.248812 0.893523 2.373004 -3.251792 -4.372178 -7.792280 0.761971 -1.910516 -24.417103 3.195572 -2.548507 42.021499 -1.669692 -3.598406 -0.169693 0.000000 0.000000 0.000000 4.851894 2.583662 -17.537575 2.720180 2.232103 58.987890 -3.450021 -5.080993 -8.759516 0.000000 0.000000 0.000000 -3.031634 -0.190819 19.988358 0.876023 -0.367124 -3.083704 5.188501 -6.872287 12.897552 -1.272035 1.031943 -26.744634 0.000000 0.000000 0.000000 -20.752281 5.303213 -2.201469 -48.267802 19.584327 -14.142493 -22.722745 -25.610682 7.008299 0.000000 0.000000 0.000000 20.012725 -0.285396 -4.390070 45.210052 -20.370993 -11.901220 12.606840 20.023464 2.319300 0.000000 0.000000 0.000000 
0.247819 0.906292 2.420658 -3.041301 -3.680034 -6.890034 0.483985 -1.784406 -21.573076 3.022061 -2.483850 40.457215 -0.730929 -2.368451 -1.707503 0.000000 0.000000 0.000000 5.147265 3.133198 -20.809271 -0.057431 2.777734 45.751947 -1.685939 1.428657 -9.891150 0.000000 0.000000 0.000000 -2.135013 -0.343759 19.022659 0.996567 -0.415971 -2.982944 4.528592 -8.683254 12.898202 -2.768383 1.606327 -26.067484 0.000000 0.000000 0.000000 -21.843111 5.594345 -2.045661 -48.659233 15.572845 -12.894263 -19.331987 -23.258672 5.597698 0.000000 0.000000 0.000000 20.182511 0.137438 -4.614719 46.523830 -20.188943 -12.152525 11.719743 19.321273 2.045600 0.000000 0.000000 0.000000 
0.244735 0.925169 2.464031 -1.933183 -1.953646 -5.403291 -0.741724 -1.790331 -18.490007 3.047482 -2.515814 36.569069 -0.708107 -2.016417 -1.035609 0.000000 0.000000 0.000000 5.007269 2.958418 -20.276191 -3.666977 3.099894 32.693280 1.439951 7.356834 -5.025941 0.000000 0.000000 0.000000 -1.554312 -0.432119 16.905337 0.440034 -0.187871 -1.179390 4.166496 -9.611645 10.854511 -2.826136 1.616599 -24.191273 0.000000 0.000000 0.000000 -21.985978 5.309716 -1.937950 -48.055187 15.390604 -12.470427 -18.424543 -23.471890 5.391751 0.000000 0.000000 0.000000 19.760291 -0.836015 -5.084864 48.019433 -21.463254 -13.022587 10.237257 20.180233 1.895784 0.000000 0.000000 0.000000 
0.239603 0.941021 2.503494 -1.066750 1.029218 -4.963083 -1.681040 -1.628475 -15.076420 3.705866 -2.937715 33.069766 -2.050570 -4.801283 -0.668166 0.000000 0.000000 0.000000 4.982598 2.311639 -16.377531 -5.026748 2.825769 26.999851 2.621901 7.407746 -0.955562 0.000000 0.000000 0.000000 -0.898725 -0.535293 15.237439 0.800703 -0.308866 -2.074564 2.184412 -9.884689 11.452404 -2.346707 1.482901 -21.014184 0.000000 0.000000 0.000000 -22.743116 5.825610 -2.657236 -46.017201 15.136973 -11.872592 -17.032959 -24.801911 5.308741 0.000000 0.000000 0.000000 20.309366 -3.166082 -6.027194 48.641076 -24.058359 -14.362129 11.148950 22.896727 2.398652 0.000000 0.000000 0.000000 
0.233453 0.952767 2.536318 -0.164859 2.568048 -3.377968 -1.914478 -1.502368 -13.661945 3.969961 -3.035448 31.231874 -2.855505 -6.122910 0.066637 0.000000 0.000000 0.000000 4.549422 1.840409 -13.630614 -5.257652 2.437432 22.624181 2.859196 6.720923 0.971467 0.000000 0.000000 0.000000 -0.821645 -0.471098 12.837339 0.250928 -0.050986 -1.784424 1.779311 -8.512919 11.780822 -0.564036 0.661360 -19.508578 0.000000 0.000000 0.000000 -22.945659 5.816158 -3.261266 -43.693034 15.803394 -11.368902 -16.507996 -28.019115 5.772420 0.000000 0.000000 0.000000 20.639229 -5.643286 -6.846494 48.236973 -25.696457 -14.910198 13.884443 24.343016 3.204755 0.000000 0.000000 0.000000 
0.227185 0.960174 2.561191 0.287789 3.676072 -2.344120 -1.301593 -1.339900 -12.801545 4.119992 -3.055105 29.791931 -3.547319 -7.124198 0.824799 0.000000 0.000000 0.000000 4.260164 1.474970 -11.228087 -5.090182 2.031965 18.690434 2.565963 6.111161 0.801843 0.000000 0.000000 0.000000 -1.101829 -0.409357 11.763731 0.232584 -0.040343 -1.675037 1.640007 -7.895589 11.735153 -0.037568 0.473932 -18.968585 0.000000 0.000000 0.000000 -22.436006 7.108593 -4.326140 -41.903761 16.834992 -11.083931 -15.454975 -30.583586 5.972711 0.000000 0.000000 0.000000 19.819050 -5.828201 -6.427884 46.873219 -26.818640 -14.856194 14.591441 27.112226 3.834380 0.000000 0.000000 0.000000 
0.221451 0.962959 2.578723 0.684927 4.175907 -1.299018 -0.224478 -1.269644 -13.167516 3.794462 -3.020318 30.275184 -4.210187 -7.806906 1.903558 0.000000 0.000000 0.000000 3.677466 1.280416 -10.173578 -4.413898 1.709845 16.995300 2.553445 5.831587 1.236407 0.000000 0.000000 0.000000 -0.949536 -0.438151 12.036296 0.353552 -0.109200 -1.347315 1.112288 -6.482985 11.140822 0.404084 0.469378 -19.440599 0.000000 0.000000 0.000000 -21.986764 7.078212 -4.740916 -39.559731 17.895157 -10.571660 -13.361159 -32.514490 5.589001 0.000000 0.000000 0.000000 19.056620 -5.929400 -5.892692 45.346466 -27.461336 -14.476452 16.809642 29.730324 4.903323 0.000000 0.000000 0.000000 
0.216397 0.963014 2.590662 0.850612 4.238598 -0.239027 0.588987 -1.332376 -14.656443 4.120944 -3.287074 31.568501 -4.969867 -9.029443 2.472306 0.000000 0.000000 0.000000 3.307214 1.213089 -9.925575 -3.753698 1.459626 15.811663 2.614999 6.311645 0.718879 0.000000 0.000000 0.000000 -0.662912 -0.509640 12.969776 0.143838 -0.014496 -1.282949 0.991681 -5.230958 11.352068 1.281411 0.205578 -20.775827 0.000000 0.000000 0.000000 -21.342562 6.431413 -4.618963 -38.100827 18.312809 -10.190960 -12.228584 -33.238758 5.255459 0.000000 0.000000 0.000000 17.165578 -5.986951 -5.226984 44.364455 -27.345924 -14.082118 19.599827 32.084744 6.192063 0.000000 0.000000 0.000000 
